<?xml version="1.0" encoding="UTF-8"?>
<svg version="1.1" xmlns="http://www.w3.org/2000/svg" width="64" height="64">
<path d="M0 0 C1.68866944 0.05024837 3.37748353 0.09586035 5.06640625 0.13671875 C9.17289043 0.24605554 13.27232419 0.41805143 17.375 0.625 C17.375 3.925 17.375 7.225 17.375 10.625 C23.315 10.625 29.255 10.625 35.375 10.625 C35.375 23.825 35.375 37.025 35.375 50.625 C29.435 50.625 23.495 50.625 17.375 50.625 C17.375 52.605 17.375 54.585 17.375 56.625 C2.195 56.625 -12.985 56.625 -28.625 56.625 C-28.83125 49.24125 -29.0375 41.8575 -29.25 34.25 C-29.34104004 31.9395166 -29.43208008 29.6290332 -29.52587891 27.24853516 C-29.93045466 10.49652572 -29.93045466 10.49652572 -24.75 4.1875 C-17.43053525 -1.45894423 -8.75807093 -0.45516548 0 0 Z M-14.625 2.625 C-14.625 6.585 -14.625 10.545 -14.625 14.625 C-18.585 14.625 -22.545 14.625 -26.625 14.625 C-26.64964775 20.16088533 -26.66783496 25.696739 -26.67993164 31.23266602 C-26.68497244 33.1174373 -26.69180498 35.00220465 -26.70043945 36.88696289 C-26.71251617 39.59001636 -26.71823068 42.29301831 -26.72265625 44.99609375 C-26.72781754 45.84400986 -26.73297882 46.69192596 -26.73829651 47.5655365 C-26.73849195 49.58571068 -26.68706211 51.60577934 -26.625 53.625 C-25.41428204 55.06424868 -25.41428204 55.06424868 -21.83959961 54.73852539 C-20.15217271 54.73836622 -18.46474095 54.73266917 -16.77734375 54.72265625 C-15.8909169 54.7212413 -15.00449005 54.71982635 -14.09120178 54.71836853 C-11.24826746 54.71275215 -8.40541069 54.70019691 -5.5625 54.6875 C-3.63997509 54.68248711 -1.71744896 54.67792384 0.20507812 54.67382812 C4.92841549 54.66277741 9.65169458 54.64550183 14.375 54.625 C14.705 53.305 15.035 51.985 15.375 50.625 C10.095 50.625 4.815 50.625 -0.625 50.625 C-0.625 37.425 -0.625 24.225 -0.625 10.625 C4.655 10.625 9.935 10.625 15.375 10.625 C15.375 8.315 15.375 6.005 15.375 3.625 C14.28312017 2.30724715 14.28312017 2.30724715 11.59936523 2.51147461 C10.38966064 2.51671143 9.17995605 2.52194824 7.93359375 2.52734375 C6.62841797 2.53056641 5.32324219 2.53378906 3.97851562 2.53710938 C2.5898431 2.54546599 1.20117123 2.55393095 -0.1875 2.5625 C-1.58007656 2.56751334 -2.97265481 2.57207653 -4.36523438 2.57617188 C-7.7851987 2.58800566 -11.20507844 2.6044912 -14.625 2.625 Z M-19.25390625 6.12109375 C-19.89199219 6.76175781 -20.53007812 7.40242187 -21.1875 8.0625 C-22.14849609 9.01962891 -22.14849609 9.01962891 -23.12890625 9.99609375 C-24.73774068 11.37913176 -24.73774068 11.37913176 -24.625 12.625 C-22.29205225 12.66741723 -19.95797433 12.66592937 -17.625 12.625 C-16.20922523 11.44075674 -16.20922523 11.44075674 -16.5625 8.0625 C-16.583125 6.928125 -16.60375 5.79375 -16.625 4.625 C-17.87086824 4.51225932 -17.87086824 4.51225932 -19.25390625 6.12109375 Z M1.375 13.625 C1.375 16.925 1.375 20.225 1.375 23.625 C11.605 23.625 21.835 23.625 32.375 23.625 C32.375 19.995 32.375 16.365 32.375 12.625 C28.12085377 12.60034378 23.86674502 12.58216101 19.61254883 12.57006836 C18.16429927 12.56502899 16.71605483 12.55819747 15.26782227 12.54956055 C13.19025412 12.53747753 11.11275303 12.53176789 9.03515625 12.52734375 C7.78355713 12.52210693 6.53195801 12.51687012 5.24243164 12.51147461 C2.47767706 12.29612965 2.47767706 12.29612965 1.375 13.625 Z M1.375 26.625 C1.354375 30.069375 1.33375 33.51375 1.3125 37.0625 C1.303396 38.14974365 1.29429199 39.2369873 1.28491211 40.35717773 C1.28241455 41.20739502 1.27991699 42.0576123 1.27734375 42.93359375 C1.27210693 43.80814209 1.26687012 44.68269043 1.26147461 45.58374023 C1.14715191 47.61940206 1.14715191 47.61940206 2.375 48.625 C4.59355264 48.71283542 6.81488496 48.73194609 9.03515625 48.72265625 C9.69962265 48.7212413 10.36408905 48.71982635 11.0486908 48.71836853 C13.17833899 48.71275518 15.30788339 48.70020054 17.4375 48.6875 C18.87825369 48.68248671 20.31900903 48.67792351 21.75976562 48.67382812 C25.29824958 48.66363076 28.83650813 48.6440583 32.375 48.625 C32.375 41.365 32.375 34.105 32.375 26.625 C22.145 26.625 11.915 26.625 1.375 26.625 Z " fill="#000000" transform="translate(28.625,3.375)"/>
<path d="M0 0 C3.55247432 0.87379409 4.94828114 2.4927342 6.9375 5.4765625 C7.63597125 8.3162489 7.63597125 10.6368761 6.9375 13.4765625 C4.94828114 16.4603908 3.55247432 18.07933091 0 18.953125 C-3.92313492 19.23547183 -5.73362371 18.69581336 -9.0625 16.4765625 C-11.28175086 13.14768621 -11.82140933 11.33719742 -11.5390625 7.4140625 C-10.07519871 1.46261629 -5.59135555 -0.40240816 0 0 Z M-6.6875 4.6015625 C-8.6796336 7.31810831 -8.47312354 9.19157418 -8.0625 12.4765625 C-7.0625 14.4765625 -7.0625 14.4765625 -5.0625 15.4765625 C-1.93700983 15.72704886 -1.93700983 15.72704886 0.9375 15.4765625 C0.463125 14.9815625 -0.01125 14.4865625 -0.5 13.9765625 C-2.68417907 10.48187599 -2.72163911 7.56689314 -3.0625 3.4765625 C-5.11783986 3.28682584 -5.11783986 3.28682584 -6.6875 4.6015625 Z M-1.0625 3.4765625 C-1.48120553 5.80728129 -1.48120553 5.80728129 -1.0625 8.4765625 C1.33609044 10.81286998 1.33609044 10.81286998 3.9375 12.4765625 C4.32178348 8.265587 4.32178348 8.265587 2.5625 4.6015625 C0.99283986 3.28682584 0.99283986 3.28682584 -1.0625 3.4765625 Z " fill="#000000" transform="translate(17.0625,19.5234375)"/>
<path d="M0 0 C1.98 0 3.96 0 6 0 C6 1.98 6 3.96 6 6 C7.32 6 8.64 6 10 6 C10 6.99 10 7.98 10 9 C11.32 9 12.64 9 14 9 C14 9.99 14 10.98 14 12 C6.41 12 -1.18 12 -9 12 C-8.67 11.01 -8.34 10.02 -8 9 C-6.68 9 -5.36 9 -4 9 C-4 7.02 -4 5.04 -4 3 C-2.68 3 -1.36 3 0 3 C0 2.01 0 1.02 0 0 Z M2 2 C2 4.31 2 6.62 2 9 C2.66 9 3.32 9 4 9 C4 6.69 4 4.38 4 2 C3.34 2 2.68 2 2 2 Z M-2 5 C-2 6.32 -2 7.64 -2 9 C-1.34 9 -0.68 9 0 9 C0 7.68 0 6.36 0 5 C-0.66 5 -1.32 5 -2 5 Z " fill="#000000" transform="translate(12,42)"/>
<path d="M0 0 C3 0.125 3 0.125 4 1.125 C4.08631874 2.46767413 4.10706473 3.81474322 4.09765625 5.16015625 C4.09443359 5.96904297 4.09121094 6.77792969 4.08789062 7.61132812 C4.07951172 8.46146484 4.07113281 9.31160156 4.0625 10.1875 C4.05798828 11.04150391 4.05347656 11.89550781 4.04882812 12.77539062 C4.03700373 14.89195663 4.01906769 17.00848685 4 19.125 C1.36 19.125 -1.28 19.125 -4 19.125 C-4.02683987 16.14577407 -4.04676037 13.16678705 -4.0625 10.1875 C-4.07087891 9.33736328 -4.07925781 8.48722656 -4.08789062 7.61132812 C-4.09111328 6.80244141 -4.09433594 5.99355469 -4.09765625 5.16015625 C-4.10289307 4.4112915 -4.10812988 3.66242676 -4.11352539 2.89086914 C-3.91438253 -0.20676589 -3.13876126 0.13078172 0 0 Z M-2 3.125 C-2 7.415 -2 11.705 -2 16.125 C-0.68 16.125 0.64 16.125 2 16.125 C2 11.835 2 7.545 2 3.125 C0.68 3.125 -0.64 3.125 -2 3.125 Z " fill="#000000" transform="translate(56,30.875)"/>
<path d="M0 0 C3 0.125 3 0.125 4 1.125 C4.14115161 3.79558851 4.04247107 6.44932238 4 9.125 C1.36 9.125 -1.28 9.125 -4 9.125 C-4.09765625 2.97265625 -4.09765625 2.97265625 -4 1.125 C-3 0.125 -3 0.125 0 0 Z M-2 3.125 C-2 4.115 -2 5.105 -2 6.125 C-0.68 6.125 0.64 6.125 2 6.125 C2 5.135 2 4.145 2 3.125 C0.68 3.125 -0.64 3.125 -2 3.125 Z " fill="#000000" transform="translate(46,40.875)"/>
<path d="M0 0 C3 0.125 3 0.125 4 1.125 C4.14115161 3.79558851 4.04247107 6.44932238 4 9.125 C1.36 9.125 -1.28 9.125 -4 9.125 C-4.09765625 2.97265625 -4.09765625 2.97265625 -4 1.125 C-3 0.125 -3 0.125 0 0 Z M-2 3.125 C-2 4.115 -2 5.105 -2 6.125 C-0.68 6.125 0.64 6.125 2 6.125 C2 5.135 2 4.145 2 3.125 C0.68 3.125 -0.64 3.125 -2 3.125 Z " fill="#000000" transform="translate(36,40.875)"/>
<path d="M0 0 C3 0.125 3 0.125 4 1.125 C4.14115161 3.79558851 4.04247107 6.44932238 4 9.125 C1.36 9.125 -1.28 9.125 -4 9.125 C-4.09765625 2.97265625 -4.09765625 2.97265625 -4 1.125 C-3 0.125 -3 0.125 0 0 Z M-2 3.125 C-2 4.115 -2 5.105 -2 6.125 C-0.68 6.125 0.64 6.125 2 6.125 C2 5.135 2 4.145 2 3.125 C0.68 3.125 -0.64 3.125 -2 3.125 Z " fill="#000000" transform="translate(46,30.875)"/>
<path d="M0 0 C3 0.125 3 0.125 4 1.125 C4.14115161 3.79558851 4.04247107 6.44932238 4 9.125 C1.36 9.125 -1.28 9.125 -4 9.125 C-4.09765625 2.97265625 -4.09765625 2.97265625 -4 1.125 C-3 0.125 -3 0.125 0 0 Z M-2 3.125 C-2 4.115 -2 5.105 -2 6.125 C-0.68 6.125 0.64 6.125 2 6.125 C2 5.135 2 4.145 2 3.125 C0.68 3.125 -0.64 3.125 -2 3.125 Z " fill="#000000" transform="translate(36,30.875)"/>
</svg>
