<?xml version="1.0" encoding="UTF-8"?>
<svg version="1.1" xmlns="http://www.w3.org/2000/svg" width="48" height="48">
<path d="M0 0 C0.70253906 0.00386719 1.40507812 0.00773437 2.12890625 0.01171875 C2.83144531 0.00785156 3.53398437 0.00398438 4.2578125 0 C9.50229247 0.01010497 9.50229247 0.01010497 10.62890625 1.13671875 C10.72771422 2.61324539 10.7596987 4.09439111 10.76171875 5.57421875 C10.76365234 6.91613281 10.76365234 6.91613281 10.765625 8.28515625 C10.76175781 9.22617187 10.75789063 10.1671875 10.75390625 11.13671875 C10.75970703 12.54824219 10.75970703 12.54824219 10.765625 13.98828125 C10.76433594 14.88289063 10.76304688 15.7775 10.76171875 16.69921875 C10.76059082 17.52550781 10.75946289 18.35179688 10.75830078 19.203125 C10.62890625 21.13671875 10.62890625 21.13671875 9.62890625 22.13671875 C7.11754521 22.23646907 4.6398721 22.27554058 2.12890625 22.26171875 C1.42636719 22.26558594 0.72382813 22.26945312 0 22.2734375 C-5.24447997 22.26333253 -5.24447997 22.26333253 -6.37109375 21.13671875 C-6.46990172 19.66019211 -6.5018862 18.17904639 -6.50390625 16.69921875 C-6.50519531 15.80460937 -6.50648438 14.91 -6.5078125 13.98828125 C-6.50201172 12.57675781 -6.50201172 12.57675781 -6.49609375 11.13671875 C-6.49996094 10.19570313 -6.50382813 9.2546875 -6.5078125 8.28515625 C-6.50652344 7.39054687 -6.50523437 6.4959375 -6.50390625 5.57421875 C-6.50221436 4.33478516 -6.50221436 4.33478516 -6.50048828 3.0703125 C-6.22805907 -1.0007051 -3.4395197 0.00662721 0 0 Z M-3.37109375 5.13671875 C-3.69101081 7.96542124 -3.69101081 7.96542124 -3.62109375 11.13671875 C-3.62625 12.20921875 -3.63140625 13.28171875 -3.63671875 14.38671875 C-3.65137024 17.28034053 -3.65137024 17.28034053 -1.37109375 19.13671875 C2.12890625 19.47005208 2.12890625 19.47005208 5.62890625 19.13671875 C7.90918274 17.28034053 7.90918274 17.28034053 7.89453125 14.38671875 C7.889375 13.31421875 7.88421875 12.24171875 7.87890625 11.13671875 C7.8840625 10.06421875 7.88921875 8.99171875 7.89453125 7.88671875 C7.90918274 4.99309697 7.90918274 4.99309697 5.62890625 3.13671875 C0.59891051 2.5502759 0.59891051 2.5502759 -3.37109375 5.13671875 Z " fill="#000000" transform="translate(12.37109375,19.86328125)"/>
<path d="M0 0 C0.70253906 0.00386719 1.40507813 0.00773438 2.12890625 0.01171875 C2.83144531 0.00785156 3.53398438 0.00398437 4.2578125 0 C9.50229247 0.01010497 9.50229247 0.01010497 10.62890625 1.13671875 C10.72771422 2.61324539 10.7596987 4.09439111 10.76171875 5.57421875 C10.76365234 6.91613281 10.76365234 6.91613281 10.765625 8.28515625 C10.76175781 9.22617188 10.75789063 10.1671875 10.75390625 11.13671875 C10.75970703 12.54824219 10.75970703 12.54824219 10.765625 13.98828125 C10.76433594 14.88289063 10.76304688 15.7775 10.76171875 16.69921875 C10.76059082 17.52550781 10.75946289 18.35179688 10.75830078 19.203125 C10.62890625 21.13671875 10.62890625 21.13671875 9.62890625 22.13671875 C7.11754521 22.23646907 4.6398721 22.27554058 2.12890625 22.26171875 C1.42636719 22.26558594 0.72382812 22.26945312 0 22.2734375 C-5.24447997 22.26333253 -5.24447997 22.26333253 -6.37109375 21.13671875 C-6.46990172 19.66019211 -6.5018862 18.17904639 -6.50390625 16.69921875 C-6.50519531 15.80460937 -6.50648437 14.91 -6.5078125 13.98828125 C-6.50201172 12.57675781 -6.50201172 12.57675781 -6.49609375 11.13671875 C-6.49996094 10.19570313 -6.50382812 9.2546875 -6.5078125 8.28515625 C-6.50652344 7.39054688 -6.50523438 6.4959375 -6.50390625 5.57421875 C-6.50221436 4.33478516 -6.50221436 4.33478516 -6.50048828 3.0703125 C-6.22805907 -1.0007051 -3.4395197 0.00662721 0 0 Z M-3.37109375 5.13671875 C-3.69101081 7.96542124 -3.69101081 7.96542124 -3.62109375 11.13671875 C-3.62625 12.20921875 -3.63140625 13.28171875 -3.63671875 14.38671875 C-3.65137024 17.28034053 -3.65137024 17.28034053 -1.37109375 19.13671875 C2.12890625 19.47005208 2.12890625 19.47005208 5.62890625 19.13671875 C7.90918274 17.28034053 7.90918274 17.28034053 7.89453125 14.38671875 C7.889375 13.31421875 7.88421875 12.24171875 7.87890625 11.13671875 C7.8840625 10.06421875 7.88921875 8.99171875 7.89453125 7.88671875 C7.90918274 4.99309697 7.90918274 4.99309697 5.62890625 3.13671875 C0.59891051 2.5502759 0.59891051 2.5502759 -3.37109375 5.13671875 Z " fill="#000000" transform="translate(31.37109375,5.86328125)"/>
<path d="M0 0 C0.70253906 0.00386719 1.40507813 0.00773437 2.12890625 0.01171875 C2.83144531 0.00785156 3.53398438 0.00398438 4.2578125 0 C9.50229247 0.01010497 9.50229247 0.01010497 10.62890625 1.13671875 C10.72714562 2.80100926 10.75864256 4.46953806 10.75390625 6.13671875 C10.75777344 7.49796875 10.75777344 7.49796875 10.76171875 8.88671875 C10.62890625 11.13671875 10.62890625 11.13671875 9.62890625 12.13671875 C7.11754521 12.23646907 4.6398721 12.27554058 2.12890625 12.26171875 C1.42636719 12.26558594 0.72382812 12.26945312 0 12.2734375 C-5.24447997 12.26333253 -5.24447997 12.26333253 -6.37109375 11.13671875 C-6.46933312 9.47242824 -6.50083006 7.80389944 -6.49609375 6.13671875 C-6.49867187 5.22921875 -6.50125 4.32171875 -6.50390625 3.38671875 C-6.24704944 -0.96473778 -3.78600501 0.00729481 0 0 Z M-1.37109375 3.13671875 C-2.03109375 4.45671875 -2.69109375 5.77671875 -3.37109375 7.13671875 C-1.414754 9.54793734 -1.414754 9.54793734 2.25390625 9.26171875 C3.36765625 9.22046875 4.48140625 9.17921875 5.62890625 9.13671875 C6.28890625 7.81671875 6.94890625 6.49671875 7.62890625 5.13671875 C5.6725665 2.72550016 5.6725665 2.72550016 2.00390625 3.01171875 C0.33328125 3.07359375 0.33328125 3.07359375 -1.37109375 3.13671875 Z " fill="#000000" transform="translate(31.37109375,29.86328125)"/>
<path d="M0 0 C0.70253906 0.00386719 1.40507812 0.00773438 2.12890625 0.01171875 C2.83144531 0.00785156 3.53398437 0.00398437 4.2578125 0 C9.50229247 0.01010497 9.50229247 0.01010497 10.62890625 1.13671875 C10.72714562 2.80100926 10.75864256 4.46953806 10.75390625 6.13671875 C10.75777344 7.49796875 10.75777344 7.49796875 10.76171875 8.88671875 C10.62890625 11.13671875 10.62890625 11.13671875 9.62890625 12.13671875 C7.11754521 12.23646907 4.6398721 12.27554058 2.12890625 12.26171875 C1.42636719 12.26558594 0.72382813 12.26945312 0 12.2734375 C-5.24447997 12.26333253 -5.24447997 12.26333253 -6.37109375 11.13671875 C-6.46933312 9.47242824 -6.50083006 7.80389944 -6.49609375 6.13671875 C-6.49867188 5.22921875 -6.50125 4.32171875 -6.50390625 3.38671875 C-6.24704944 -0.96473778 -3.78600501 0.00729481 0 0 Z M-1.37109375 3.13671875 C-2.03109375 4.45671875 -2.69109375 5.77671875 -3.37109375 7.13671875 C-1.414754 9.54793734 -1.414754 9.54793734 2.25390625 9.26171875 C3.36765625 9.22046875 4.48140625 9.17921875 5.62890625 9.13671875 C6.28890625 7.81671875 6.94890625 6.49671875 7.62890625 5.13671875 C5.6725665 2.72550016 5.6725665 2.72550016 2.00390625 3.01171875 C0.33328125 3.07359375 0.33328125 3.07359375 -1.37109375 3.13671875 Z " fill="#000000" transform="translate(12.37109375,5.86328125)"/>
</svg>
